HIERARCHY
ROOT Pelvis
{
	OFFSET 0.000000 0.000000 0.000000
	CHANNELS 6 Xposition Yposition Zposition Xrotation Yrotation Zrotation
	JOINT LeftUpLeg_virtual
	{
		OFFSET 0.000000 0.000000 0.000000
		CHANNELS 3 Xrotation Yrotation Zrotation
		JOINT LeftUpLeg
		{
			OFFSET 8.479700 -4.795502 -0.379100
			CHANNELS 3 Xrotation Yrotation Zrotation
			JOINT LeftLeg
			{
				OFFSET 0.024144 -32.555107 0.112900
				CHANNELS 3 Xrotation Yrotation Zrotation
				JOINT LeftFoot
				{
					OFFSET -0.024144 -32.638630 -3.012600
					CHANNELS 3 Xrotation Yrotation Zrotation
					JOINT LeftToeBase
					{
						OFFSET 0.970200 -13.225400 11.864200
						CHANNELS 3 Xrotation Yrotation Zrotation
						End Site
						{
							OFFSET 0 0 0
						}
					}
				}
			}
		}
	}
	JOINT RightUpLeg_virtual
	{
		OFFSET 0.000000 0.000000 0.000000
		CHANNELS 3 Xrotation Yrotation Zrotation
		JOINT RightUpLeg
		{
			OFFSET -8.479700 -4.795502 -0.379100
			CHANNELS 3 Xrotation Yrotation Zrotation
			JOINT RightLeg
			{
				OFFSET -0.023144 -32.555092 0.112900
				CHANNELS 3 Xrotation Yrotation Zrotation
				JOINT RightFoot
				{
					OFFSET 0.023144 -32.638641 -3.012700
					CHANNELS 3 Xrotation Yrotation Zrotation
					JOINT RightToeBase
					{
						OFFSET -0.970200 -13.225400 11.864200
						CHANNELS 3 Xrotation Yrotation Zrotation
						End Site
						{
							OFFSET 0 0 0
						}
					}
				}
			}
		}
	}
	JOINT Hips_virtual
	{
		OFFSET 0.000000 0.000000 0.000000
		CHANNELS 3 Xrotation Yrotation Zrotation
		JOINT Hips
		{
			OFFSET -0.000000 -0.000000 -0.000000
			CHANNELS 3 Xrotation Yrotation Zrotation
			JOINT Spine
			{
				OFFSET 0.000000 7.722000 1.166200
				CHANNELS 3 Xrotation Yrotation Zrotation
				JOINT Spine1
				{
					OFFSET 0.000000 12.024101 0.248800
					CHANNELS 3 Xrotation Yrotation Zrotation
					JOINT Spine2
					{
						OFFSET 0.000000 11.502998 -0.491200
						CHANNELS 3 Xrotation Yrotation Zrotation
						JOINT Neck_virtual
						{
							OFFSET 0.000000 0.000000 0.000000
							CHANNELS 3 Xrotation Yrotation Zrotation
							JOINT Neck
							{
								OFFSET 0.000000 18.430702 -3.123100
								CHANNELS 3 Xrotation Yrotation Zrotation
								JOINT Head
								{
									OFFSET 0.000000 9.051102 1.034000
									CHANNELS 3 Xrotation Yrotation Zrotation
									End Site
									{
										OFFSET 0 0 0
									}
								}
							}
						}
						JOINT LeftShoulder_virtual
						{
							OFFSET 0.000000 0.000000 0.000000
							CHANNELS 3 Xrotation Yrotation Zrotation
							JOINT LeftShoulder
							{
								OFFSET 6.197800 13.665199 -4.064700
								CHANNELS 3 Xrotation Yrotation Zrotation
								JOINT LeftArm
								{
									OFFSET 7.778100 -0.187103 -1.709300
									CHANNELS 3 Xrotation Yrotation Zrotation
									JOINT LeftForeArm
									{
										OFFSET 22.049376 0.000000 0.000000
										CHANNELS 3 Xrotation Yrotation Zrotation
										JOINT LeftHand
										{
											OFFSET 23.009392 0.000000 0.000000
											CHANNELS 3 Xrotation Yrotation Zrotation
											End Site
											{
												OFFSET 0 0 0
											}
										}
									}
								}
							}
						}
						JOINT RightShoulder_virtual
						{
							OFFSET 0.000000 0.000000 0.000000
							CHANNELS 3 Xrotation Yrotation Zrotation
							JOINT RightShoulder
							{
								OFFSET -6.197800 13.665199 -4.064700
								CHANNELS 3 Xrotation Yrotation Zrotation
								JOINT RightArm
								{
									OFFSET -7.778100 -0.187103 -1.709300
									CHANNELS 3 Xrotation Yrotation Zrotation
									JOINT RightForeArm
									{
										OFFSET -22.049376 0.000000 0.000000
										CHANNELS 3 Xrotation Yrotation Zrotation
										JOINT RightHand
										{
											OFFSET -23.009392 0.000000 0.000000
											CHANNELS 3 Xrotation Yrotation Zrotation
											End Site
											{
												OFFSET 0 0 0
											}
										}
									}
								}
							}
						}
					}
				}
			}
		}
	}
}
MOTION
Frames: 13
Frame Time: 0.03333333
0.331327 67.204544 1.880013 0.000000 0.000000 0.000000 26.339235 -23.141794 8.780178 -76.105758 -0.919444 22.291729 59.478763 -0.493612 4.949315 -5.477904 1.586405 -17.219800 0.000000 0.000000 0.000000 26.339235 -23.141794 8.780178 -71.805130 -6.130137 -21.394301 64.038904 -1.427219 -7.665446 -14.240658 -2.971824 16.225464 0.000000 0.000000 0.000000 26.339235 -23.141794 8.780178 0.000000 -0.000001 0.000000 14.946962 2.607868 -0.826633 8.954930 1.454253 -0.667652 0.000000 0.000000 0.000000 8.929228 1.567215 -0.769626 -7.642831 3.429839 -7.508564 0.000000 0.000000 0.000000 8.929228 1.567215 -0.769626 3.858310 -6.469474 9.422132 -49.881049 5.784875 -65.370935 0.004579 -89.198384 0.004939 0.000000 0.000000 0.000000 8.929228 1.567215 -0.769626 3.960224 12.222857 4.273396 -38.946907 11.840050 48.020830 179.996030 86.265139 -179.996071 0.000000 0.000000 0.000000 
0.315178 67.279457 1.949871 0.000000 0.000000 0.000000 26.464767 -23.206630 8.830623 -76.039014 -0.856883 22.338103 59.375306 -0.544441 4.969864 -5.565022 1.602176 -17.278176 0.000000 0.000000 0.000000 26.464767 -23.206630 8.830623 -71.743057 -6.228412 -21.279270 63.838261 -1.543600 -7.790874 -14.261351 -2.822342 16.175227 0.000000 0.000000 0.000000 26.464767 -23.206630 8.830623 0.000000 -0.000002 0.000000 14.954646 2.476573 -0.862314 8.942666 1.377978 -0.669283 0.000000 0.000000 0.000000 8.917261 1.494831 -0.768339 -7.594619 3.504786 -7.365772 0.000000 0.000000 0.000000 8.917261 1.494831 -0.768339 3.797565 -6.379666 8.897872 -49.025056 5.833128 -65.558580 179.997068 -89.663698 179.997519 0.000000 0.000000 0.000000 8.917261 1.494831 -0.768339 3.972533 12.168643 4.140055 -38.744439 11.705568 49.039973 179.999254 84.928041 -179.999322 0.000000 0.000000 0.000000 
0.289003 67.328873 2.001408 0.000000 0.000000 0.000000 26.611978 -23.287696 8.898219 -76.013332 -0.834280 22.395967 59.312222 -0.569377 4.995814 -5.648873 1.621645 -17.372067 0.000000 0.000000 0.000000 26.611978 -23.287696 8.898219 -71.746991 -6.290013 -21.139111 63.717435 -1.531428 -7.892901 -14.288265 -2.812571 16.114892 0.000000 0.000000 0.000000 26.611978 -23.287696 8.898219 -0.000001 0.000001 0.000000 14.960628 2.332455 -0.878394 8.932684 1.291005 -0.662409 0.000000 0.000000 0.000000 8.908011 1.411639 -0.757965 -7.575341 3.601990 -7.236720 0.000000 0.000000 0.000000 8.908011 1.411639 -0.757965 3.730453 -6.286349 8.218748 -48.220217 5.755340 -65.566592 179.995593 -88.580450 179.995552 0.000000 0.000000 0.000000 8.908011 1.411639 -0.757965 3.981628 12.107280 3.979453 -38.415842 11.620498 49.978769 179.999582 83.383578 -179.999609 0.000000 0.000000 0.000000 
0.251861 67.354263 2.036194 0.000000 0.000000 0.000000 26.779346 -23.380147 8.985693 -76.025702 -0.841508 22.460555 59.283228 -0.573146 5.030321 -5.728786 1.643757 -17.493219 0.000000 0.000000 0.000000 26.779346 -23.380147 8.985693 -71.812561 -6.314612 -20.977534 63.660956 -1.526671 -8.000263 -14.323085 -2.813727 16.082396 0.000000 0.000000 0.000000 26.779346 -23.380147 8.985693 0.000001 -0.000002 0.000001 14.969353 2.186092 -0.872580 8.925409 1.196944 -0.646758 0.000000 0.000000 0.000000 8.901920 1.320520 -0.738020 -7.587594 3.716965 -7.129050 0.000000 0.000000 0.000000 8.901920 1.320520 -0.738020 3.660233 -6.192010 7.427265 -47.464023 5.638783 -65.420959 179.986631 -87.565948 179.986727 0.000000 0.000000 0.000000 8.901920 1.320520 -0.738020 3.982094 12.033532 3.810701 -38.063282 11.622200 50.879636 179.999882 81.797997 -179.999882 0.000000 0.000000 0.000000 
0.202316 67.356613 2.054531 0.000000 0.000000 0.000000 26.957703 -23.479805 9.090400 -76.069743 -0.868710 22.531711 59.284895 -0.565770 5.075357 -5.804209 1.667921 -17.635398 0.000000 0.000000 0.000000 26.957703 -23.479805 9.090400 -71.931809 -6.292775 -20.818365 63.660642 -1.495392 -8.109645 -14.302884 -2.827891 16.166832 0.000000 0.000000 0.000000 26.957703 -23.479805 9.090400 -0.000002 -0.000001 -0.000000 14.987488 2.049716 -0.846848 8.922844 1.103808 -0.624601 0.000000 0.000000 0.000000 8.900827 1.229002 -0.711223 -7.629431 3.839549 -7.045026 0.000000 0.000000 0.000000 8.900827 1.229002 -0.711223 3.590612 -6.098768 6.593864 -46.754714 5.551518 -65.181253 -179.998161 -86.628498 -179.998188 0.000000 0.000000 0.000000 8.900827 1.229002 -0.711223 3.972950 11.944951 3.645320 -37.723879 11.625864 51.744212 -179.999663 80.145091 179.999650 0.000000 0.000000 0.000000 
0.139357 67.337265 2.056215 0.000000 0.000000 0.000000 27.132324 -23.584160 9.205778 -76.133994 -0.908165 22.611095 59.314613 -0.556821 5.131633 -5.874640 1.693708 -17.793835 0.000000 0.000000 0.000000 27.132324 -23.584160 9.205778 -72.092920 -6.244165 -20.654468 63.726068 -1.462524 -8.221446 -14.291186 -2.848504 16.280603 0.000000 0.000000 0.000000 27.132324 -23.584160 9.205778 0.000000 0.000000 0.000000 15.020604 1.936025 -0.806236 8.927368 1.021126 -0.598634 0.000000 0.000000 0.000000 8.906872 1.146679 -0.680948 -7.687422 3.957348 -6.985318 0.000000 0.000000 0.000000 8.906872 1.146679 -0.680948 3.524325 -6.006581 5.793823 -46.093252 5.532727 -64.919247 179.999404 -85.788802 179.999418 0.000000 0.000000 0.000000 8.906872 1.146679 -0.680948 3.954986 11.845348 3.498258 -37.170070 11.796813 52.364403 -179.999868 78.393961 179.999855 0.000000 0.000000 0.000000 
0.062754 67.298683 2.041132 0.000000 0.000000 0.000000 27.287786 -23.689961 9.323038 -76.204509 -0.957368 22.699900 59.367840 -0.553241 5.195158 -5.938395 1.720480 -17.964151 0.000000 0.000000 0.000000 27.287786 -23.689961 9.323038 -72.283550 -6.182598 -20.495651 63.858014 -1.423898 -8.330491 -14.296010 -2.872696 16.402317 0.000000 0.000000 0.000000 27.287786 -23.689961 9.323038 0.000000 0.000001 -0.000001 15.069537 1.854940 -0.758418 8.939665 0.957387 -0.571682 0.000000 0.000000 0.000000 8.920494 1.082580 -0.650628 -7.736420 4.058799 -6.950460 0.000000 0.000000 0.000000 8.920494 1.082580 -0.650628 3.463487 -5.915802 5.093598 -45.480327 5.589825 -64.700333 -179.998052 -85.077335 -179.998038 0.000000 0.000000 0.000000 8.920494 1.082580 -0.650628 3.929811 11.747136 3.404040 -36.530297 12.188375 52.703413 -179.999786 76.844546 179.999800 0.000000 0.000000 0.000000 
-0.026389 67.244217 2.010157 0.000000 0.000000 0.000000 27.412379 -23.793514 9.433404 -76.267272 -1.019838 22.796759 59.438594 -0.556236 5.259031 -5.993691 1.747746 -18.143441 0.000000 0.000000 0.000000 27.412379 -23.793514 9.433404 -72.492302 -6.122645 -20.350866 64.053767 -1.377708 -8.430537 -14.325188 -2.897017 16.506860 0.000000 0.000000 0.000000 27.412379 -23.793514 9.433404 0.000000 0.000001 0.000000 15.129506 1.811277 -0.710410 8.957966 0.917790 -0.545687 0.000000 0.000000 0.000000 8.939705 1.042670 -0.622659 -7.750302 4.136005 -6.940343 0.000000 0.000000 0.000000 8.939705 1.042670 -0.622659 3.409254 -5.827088 4.531124 -44.913186 5.702185 -64.564699 -179.999363 -84.522170 -179.999349 0.000000 0.000000 0.000000 8.939705 1.042670 -0.622659 3.901276 11.666120 3.400139 -35.976232 12.591398 52.901420 179.999978 75.491540 -179.999991 0.000000 0.000000 0.000000 
-0.125857 67.177582 1.964876 0.000000 0.000000 0.000000 27.500893 -23.888467 9.530995 -76.312980 -1.102217 22.895660 59.519525 -0.562705 5.314668 -6.037816 1.774792 -18.328497 0.000000 0.000000 0.000000 27.500893 -23.888467 9.530995 -72.710068 -6.074853 -20.228515 64.306511 -1.328052 -8.515345 -14.386011 -2.918723 16.573058 0.000000 0.000000 0.000000 27.500893 -23.888467 9.530995 -0.000001 0.000000 0.000000 15.191335 1.804261 -0.667798 8.978274 0.903585 -0.521981 0.000000 0.000000 0.000000 8.960362 1.028912 -0.598583 -7.707976 4.185154 -6.954147 0.000000 0.000000 0.000000 8.960362 1.028912 -0.598583 3.362091 -5.742493 4.109866 -44.390817 5.829254 -64.522366 179.999964 -84.141271 179.999991 0.000000 0.000000 0.000000 8.960362 1.028912 -0.598583 3.873859 11.618034 3.523663 -35.470067 12.987577 52.920784 179.999950 74.302493 -179.999950 0.000000 0.000000 0.000000 
-0.232821 67.102608 1.907557 0.000000 0.000000 0.000000 27.555329 -23.966818 9.613965 -76.338203 -1.210157 22.986824 59.601993 -0.567128 5.355719 -6.067814 1.800764 -18.516457 0.000000 0.000000 0.000000 27.555329 -23.966818 9.613965 -72.930772 -6.042274 -20.134452 64.605694 -1.283190 -8.580277 -14.480860 -2.936472 16.591713 0.000000 0.000000 0.000000 27.555329 -23.966818 9.613965 0.000000 -0.000001 0.000000 15.244777 1.827130 -0.632702 8.995584 0.911208 -0.500964 0.000000 0.000000 0.000000 8.977568 1.037971 -0.578645 -7.601808 4.208268 -6.989393 0.000000 0.000000 0.000000 8.977568 1.037971 -0.578645 3.322260 -5.666173 3.797945 -43.913960 5.927402 -64.551394 -179.998707 -83.931304 -179.998694 0.000000 0.000000 0.000000 8.977568 1.037971 -0.578645 3.850701 11.612492 3.788402 -34.996359 13.360554 52.756904 -179.999882 73.269024 179.999909 0.000000 0.000000 0.000000 
-0.344563 67.022972 1.840630 0.000000 0.000000 0.000000 27.582536 -24.020863 9.684399 -76.344515 -1.344166 23.059309 59.676804 -0.564408 5.380908 -6.080738 1.824914 -18.706215 0.000000 0.000000 0.000000 27.582536 -24.020863 9.684399 -73.150226 -6.020676 -20.070885 64.937477 -1.253235 -8.623322 -14.606383 -2.950534 16.567126 0.000000 0.000000 0.000000 27.582536 -24.020863 9.684399 -0.000001 -0.000001 0.000001 15.281932 1.869406 -0.602990 9.005715 0.933331 -0.482030 0.000000 0.000000 0.000000 8.987299 1.062140 -0.561691 -7.437285 4.212024 -7.043134 0.000000 0.000000 0.000000 8.987299 1.062140 -0.561691 3.289503 -5.602864 3.536593 -43.486595 5.962872 -64.607477 -179.999008 -83.868856 -179.998967 0.000000 0.000000 0.000000 8.987299 1.062140 -0.561691 3.833312 11.648802 4.175601 -34.549125 13.693173 52.442298 179.999950 72.385443 -179.999950 0.000000 0.000000 0.000000 
-0.458942 66.941429 1.766012 0.000000 0.000000 0.000000 27.590686 -24.045358 9.746320 -76.337473 -1.499186 23.104677 59.736834 -0.552797 5.394136 -6.074451 1.846619 -18.897609 0.000000 0.000000 0.000000 27.590686 -24.045358 9.746320 -73.366450 -6.002894 -20.036309 65.288795 -1.245588 -8.646612 -14.755066 -2.962321 16.513591 0.000000 0.000000 0.000000 27.590686 -24.045358 9.746320 0.000000 0.000001 -0.000001 15.299941 1.918186 -0.572711 9.006773 0.959920 -0.463709 0.000000 0.000000 0.000000 8.987890 1.090562 -0.545489 -7.229711 4.207408 -7.113304 0.000000 0.000000 0.000000 8.987890 1.090562 -0.545489 3.263589 -5.557374 3.262280 -43.114548 5.928247 -64.639128 179.999991 -83.911852 -179.999991 0.000000 0.000000 0.000000 8.987890 1.090562 -0.545489 3.821583 11.716373 4.633051 -34.129608 13.968324 52.043866 -179.999950 71.644368 179.999964 0.000000 0.000000 0.000000 
-0.574619 66.859818 1.684679 0.000000 0.000000 0.000000 27.585058 -24.039761 9.803247 -76.322050 -1.664947 23.120498 59.777795 -0.535659 5.403426 -6.048501 1.865821 -19.093350 0.000000 0.000000 0.000000 27.585058 -24.039761 9.803247 -73.577475 -5.983547 -20.025222 65.648425 -1.262276 -8.656715 -14.917581 -2.973774 16.448465 0.000000 0.000000 0.000000 27.585058 -24.039761 9.803247 0.000000 0.000002 0.000000 15.302638 1.960958 -0.533876 9.000466 0.980465 -0.443987 0.000000 0.000000 0.000000 8.981379 1.111706 -0.527192 -6.999989 4.206282 -7.199143 0.000000 0.000000 0.000000 8.981379 1.111706 -0.527192 3.243141 -5.530092 2.922643 -42.802986 5.840641 -64.602443 -179.999718 -84.008253 -179.999718 0.000000 0.000000 0.000000 8.981379 1.111706 -0.527192 3.814215 11.798099 5.084278 -33.745096 14.172820 51.652339 179.999991 71.037669 -179.999991 0.000000 0.000000 0.000000 
